<?xml version="1.0" encoding="UTF-8"?> <svg xmlns="http://www.w3.org/2000/svg" xmlns:xlink="http://www.w3.org/1999/xlink" id="Layer_2" data-name="Layer 2" viewBox="0 0 1615.11 406.26"><defs><style> .cls-1 { fill: url(#_Безымянный_градиент_2-10); } .cls-1, .cls-2, .cls-3, .cls-4, .cls-5, .cls-6, .cls-7, .cls-8, .cls-9, .cls-10, .cls-11, .cls-12, .cls-13, .cls-14, .cls-15, .cls-16, .cls-17, .cls-18, .cls-19, .cls-20, .cls-21, .cls-22, .cls-23, .cls-24, .cls-25, .cls-26, .cls-27, .cls-28, .cls-29, .cls-30, .cls-31, .cls-32 { stroke-width: 0px; } .cls-2 { fill: url(#_Безымянный_градиент_2-16); } .cls-3 { fill: url(#_Безымянный_градиент_2-13); } .cls-4 { fill: url(#_Безымянный_градиент_2-14); } .cls-5 { fill: url(#_Безымянный_градиент_2-18); } .cls-6 { fill: url(#_Безымянный_градиент_2-12); } .cls-7 { fill: url(#_Безымянный_градиент_2-11); } .cls-8 { fill: url(#_Безымянный_градиент_2-19); } .cls-9 { fill: url(#_Безымянный_градиент_2-15); } .cls-10 { fill: url(#_Безымянный_градиент_2-17); } .cls-11 { fill: url(#_Безымянный_градиент_2-26); } .cls-12 { fill: url(#_Безымянный_градиент_2-25); } .cls-13 { fill: url(#_Безымянный_градиент_2-28); } .cls-14 { fill: url(#_Безымянный_градиент_2-24); } .cls-15 { fill: url(#_Безымянный_градиент_2-22); } .cls-16 { fill: url(#_Безымянный_градиент_2-23); } .cls-17 { fill: url(#_Безымянный_градиент_2-29); } .cls-18 { fill: url(#_Безымянный_градиент_2-21); } .cls-19 { fill: url(#_Безымянный_градиент_2-27); } .cls-20 { fill: url(#_Безымянный_градиент_2-20); } .cls-21 { fill: url(#_Безымянный_градиент_2-32); } .cls-22 { fill: url(#_Безымянный_градиент_2-30); } .cls-23 { fill: url(#_Безымянный_градиент_2-31); } .cls-24 { fill: url(#_Безымянный_градиент_2); } .cls-25 { fill: url(#_Безымянный_градиент_2-9); } .cls-26 { fill: url(#_Безымянный_градиент_2-4); } .cls-27 { fill: url(#_Безымянный_градиент_2-3); } .cls-28 { fill: url(#_Безымянный_градиент_2-6); } .cls-29 { fill: url(#_Безымянный_градиент_2-5); } .cls-30 { fill: url(#_Безымянный_градиент_2-2); } .cls-31 { fill: url(#_Безымянный_градиент_2-7); } .cls-32 { fill: url(#_Безымянный_градиент_2-8); } </style><linearGradient id="_Безымянный_градиент_2" data-name="Безымянный градиент 2" x1="431.73" y1="146.61" x2="503.72" y2="218.59" gradientUnits="userSpaceOnUse"><stop offset="0" stop-color="#afafae"></stop><stop offset=".03" stop-color="#b9b9b8"></stop><stop offset=".13" stop-color="#ddd"></stop><stop offset=".19" stop-color="#ececec"></stop><stop offset=".19" stop-color="#ebebeb"></stop><stop offset=".3" stop-color="#d5d5d4"></stop><stop offset=".4" stop-color="#c7c7c6"></stop><stop offset=".48" stop-color="#c3c3c2"></stop><stop offset=".61" stop-color="#e8e8e8"></stop><stop offset=".68" stop-color="#fff"></stop><stop offset=".76" stop-color="#f4f4f4"></stop><stop offset=".87" stop-color="#e0e0df"></stop><stop offset="1" stop-color="#fff"></stop></linearGradient><linearGradient id="_Безымянный_градиент_2-2" data-name="Безымянный градиент 2" x1="514.05" y1="146.32" x2="601.87" y2="234.14" xlink:href="#_Безымянный_градиент_2"></linearGradient><linearGradient id="_Безымянный_градиент_2-3" data-name="Безымянный градиент 2" x1="612" y1="149.93" x2="695.05" y2="232.97" xlink:href="#_Безымянный_градиент_2"></linearGradient><linearGradient id="_Безымянный_градиент_2-4" data-name="Безымянный градиент 2" x1="698.34" y1="145.67" x2="781.34" y2="228.67" xlink:href="#_Безымянный_градиент_2"></linearGradient><linearGradient id="_Безымянный_градиент_2-5" data-name="Безымянный градиент 2" x1="810.1" y1="155.64" x2="878.07" y2="223.61" xlink:href="#_Безымянный_градиент_2"></linearGradient><linearGradient id="_Безымянный_градиент_2-6" data-name="Безымянный градиент 2" x1="899.53" y1="158.42" x2="973.03" y2="231.91" xlink:href="#_Безымянный_градиент_2"></linearGradient><linearGradient id="_Безымянный_градиент_2-7" data-name="Безымянный градиент 2" x1="999.81" y1="158.46" x2="1062.22" y2="220.87" xlink:href="#_Безымянный_градиент_2"></linearGradient><linearGradient id="_Безымянный_градиент_2-8" data-name="Безымянный градиент 2" x1="1084.08" y1="145.67" x2="1167.07" y2="228.67" xlink:href="#_Безымянный_градиент_2"></linearGradient><linearGradient id="_Безымянный_градиент_2-9" data-name="Безымянный градиент 2" x1="1195.83" y1="155.64" x2="1263.8" y2="223.61" xlink:href="#_Безымянный_градиент_2"></linearGradient><linearGradient id="_Безымянный_градиент_2-10" data-name="Безымянный градиент 2" x1="1312.86" y1="156.03" x2="1376.17" y2="219.34" xlink:href="#_Безымянный_градиент_2"></linearGradient><linearGradient id="_Безымянный_градиент_2-11" data-name="Безымянный градиент 2" x1="1388" y1="173.89" x2="1455.98" y2="241.88" xlink:href="#_Безымянный_градиент_2"></linearGradient><linearGradient id="_Безымянный_градиент_2-12" data-name="Безымянный градиент 2" x1="1460.88" y1="154.46" x2="1545.86" y2="239.44" xlink:href="#_Безымянный_градиент_2"></linearGradient><linearGradient id="_Безымянный_градиент_2-13" data-name="Безымянный градиент 2" x1="1560.35" y1="161.15" x2="1616.59" y2="217.39" xlink:href="#_Безымянный_градиент_2"></linearGradient><linearGradient id="_Безымянный_градиент_2-14" data-name="Безымянный градиент 2" x1="605.48" y1="275.35" x2="638.21" y2="308.09" xlink:href="#_Безымянный_градиент_2"></linearGradient><linearGradient id="_Безымянный_градиент_2-15" data-name="Безымянный градиент 2" x1="666.46" y1="278.94" x2="704.25" y2="316.73" xlink:href="#_Безымянный_градиент_2"></linearGradient><linearGradient id="_Безымянный_градиент_2-16" data-name="Безымянный градиент 2" x1="738.03" y1="272.76" x2="772.16" y2="306.89" xlink:href="#_Безымянный_градиент_2"></linearGradient><linearGradient id="_Безымянный_градиент_2-17" data-name="Безымянный градиент 2" x1="805.39" y1="282.04" x2="832.73" y2="309.39" xlink:href="#_Безымянный_градиент_2"></linearGradient><linearGradient id="_Безымянный_градиент_2-18" data-name="Безымянный градиент 2" x1="865.59" y1="275.35" x2="898.33" y2="308.09" xlink:href="#_Безымянный_градиент_2"></linearGradient><linearGradient id="_Безымянный_градиент_2-19" data-name="Безымянный градиент 2" x1="928.05" y1="277.47" x2="964.14" y2="313.56" xlink:href="#_Безымянный_градиент_2"></linearGradient><linearGradient id="_Безымянный_градиент_2-20" data-name="Безымянный градиент 2" x1="992.56" y1="278.56" x2="1025.87" y2="311.87" xlink:href="#_Безымянный_градиент_2"></linearGradient><linearGradient id="_Безымянный_градиент_2-21" data-name="Безымянный градиент 2" x1="1080.01" y1="282.04" x2="1107.36" y2="309.39" xlink:href="#_Безымянный_градиент_2"></linearGradient><linearGradient id="_Безымянный_градиент_2-22" data-name="Безымянный градиент 2" x1="1137.18" y1="277.47" x2="1173.27" y2="313.56" xlink:href="#_Безымянный_градиент_2"></linearGradient><linearGradient id="_Безымянный_градиент_2-23" data-name="Безымянный градиент 2" x1="1199.21" y1="281.04" x2="1234.89" y2="316.72" xlink:href="#_Безымянный_градиент_2"></linearGradient><linearGradient id="_Безымянный_градиент_2-24" data-name="Безымянный градиент 2" x1="1262.3" y1="281.04" x2="1297.98" y2="316.72" xlink:href="#_Безымянный_градиент_2"></linearGradient><linearGradient id="_Безымянный_градиент_2-25" data-name="Безымянный градиент 2" x1="1328.97" y1="277.47" x2="1365.05" y2="313.56" xlink:href="#_Безымянный_градиент_2"></linearGradient><linearGradient id="_Безымянный_градиент_2-26" data-name="Безымянный градиент 2" x1="1393.1" y1="278.94" x2="1430.89" y2="316.73" xlink:href="#_Безымянный_градиент_2"></linearGradient><linearGradient id="_Безымянный_градиент_2-27" data-name="Безымянный градиент 2" x1="58.22" y1="75.57" x2="221.75" y2="239.09" xlink:href="#_Безымянный_градиент_2"></linearGradient><linearGradient id="_Безымянный_градиент_2-28" data-name="Безымянный градиент 2" x1="171.64" y1="163.7" x2="340.41" y2="332.46" xlink:href="#_Безымянный_градиент_2"></linearGradient><linearGradient id="_Безымянный_градиент_2-29" data-name="Безымянный градиент 2" x1="114.42" y1="4.79" x2="295.61" y2="185.97" xlink:href="#_Безымянный_градиент_2"></linearGradient><linearGradient id="_Безымянный_градиент_2-30" data-name="Безымянный градиент 2" x1="165.6" y1="21.92" x2="389.33" y2="245.65" xlink:href="#_Безымянный_градиент_2"></linearGradient><linearGradient id="_Безымянный_градиент_2-31" data-name="Безымянный градиент 2" x1="-4669.83" y1="-14236" x2="-4488.65" y2="-14054.82" gradientTransform="translate(-4386.52 -13834.52) rotate(-180)" xlink:href="#_Безымянный_градиент_2"></linearGradient><linearGradient id="_Безымянный_градиент_2-32" data-name="Безымянный градиент 2" x1="-4618.65" y1="-14221.63" x2="-4394.92" y2="-13997.9" gradientTransform="translate(-4386.52 -13834.52) rotate(-180)" xlink:href="#_Безымянный_градиент_2"></linearGradient></defs><g id="Layer_1-2" data-name="Layer 1"><g><g><path class="cls-24" d="m489.33,232.98c-5.24,0-12.97-.42-22.57-.42-10.85,0-18.7.42-23.07.42-1-.99-.87-5.93,0-6.77,3.74-.56,6.98-1.13,8.48-1.55,3.74-.99,4.61-2.54,4.99-7.9.62-14.82.5-36.27.5-58.85,0-.28-.37-1.27-.75-1.27-2.37-.28-8.23-.28-11.1-.14-2,.14-3.87.85-5.86,5.5-1.37,3.25-2.62,6.63-4.24,12-.62.71-6.11-.56-6.61-1.98,1-5.93,2.49-18.06,2.99-25.68.12-.28,1.12-1.27,1.5-1.13,3.99,1.55,8.98,1.83,11.97,1.83h43.64c7.85,0,12.84-.56,15.71-1.55.5.14.87,1.13.87,1.41-1.5,7.48-2.74,16.51-3.24,26.11-.87.71-5.98,1.13-6.61.42-.62-5.64-1.25-8.61-2.37-12.84-.87-3.25-2.24-4.09-4.36-4.37-3.62-.42-9.6-.28-12.09-.14-.25.14-.62.71-.62,1.27,0,20.46-.37,52.78.12,60.54.12,1.41.12,4.8,2.87,6.21,1.75.85,5.61,1.27,10.22,2.12.75.85.37,5.64-.37,6.77Z"></path><path class="cls-30" d="m513.76,146.61c3.24,0,7.23.42,19.08.42,10.6,0,16.96-.42,19.7-.42.62.85.62,6.07-.12,6.77-2.37.28-5.24.85-6.48,1.41-2.49,1.13-2.87,3.25-2.87,6.63-.13,5.93-.13,12.98-.13,20.89.25.71.37.85.62,1.13,1.12.28,2.99.28,15.21.28,8.98,0,12.22,0,13.47-.28.37-.14.87-.56.87-.85,0-6.91,0-14.25-.13-22.3-.12-1.83-.5-4.37-2.24-5.08-1.75-.99-4.11-1.27-8.1-1.83-.75-.71-.62-6.07.25-6.77,6.36,0,9.6.42,19.82.42,10.97,0,14.59-.42,19.2-.42.87.99.87,5.79,0,6.77-2.62.28-5.49.85-6.86,1.69-2.37.99-2.74,2.82-2.87,7.34-.25,9.17-.13,16.09-.13,27.8,0,9.6,0,21.03.25,27.38.12,2.54.5,5.36,2.74,6.49,1.75.85,4.11,1.27,8.73,2.12.37.99,0,6.07-.75,6.77-2.87,0-9.1-.42-20.2-.42s-17.21.42-19.7.42c-.87-.85-1-5.64-.12-6.77,2.87-.42,5.11-.85,7.11-1.55,1.87-.71,2.74-2.68,2.87-5.79.25-6.77.13-14.25.13-23.43,0-.28-.25-.85-.62-.85-2.37-.14-8.6-.14-14.21-.14-13.34,0-14.59.14-15.09.42-.12.14-.25.71-.25.85,0,9.03,0,16.37.13,21.45,0,3.39.37,5.93,3.24,7.06,1.62.71,5.11,1.41,7.85,1.98.75,1.13.12,6.07-.62,6.77-2.24,0-8.23-.42-21.57-.42-10.35,0-16.71.42-18.83.42-.5-.71-.87-5.79,0-6.77,2.87-.56,4.36-.99,6.23-1.55,3.37-.99,4.24-3.39,4.49-8.33.13-2.12.13-15.24.13-27.94,0-13.97,0-22.16-.13-26.39-.12-4.52-.5-6.21-3.12-7.06-2.49-.85-4.99-1.27-7.23-1.55-.62-.56-.37-6.21.25-6.77Z"></path><path class="cls-27" d="m623.1,214.07c7.36-19.33,15.58-44.31,18.83-54.47,1.25-3.39,2.99-9.74,3.37-12.84,2.24.28,4.61.28,7.11.28,2.62,0,4.99,0,7.11-.28.75,2.82,1.75,7.06,2.62,9.6,4.74,14.11,13.59,41.77,18.33,54.61,4.49,12.28,4.86,13.55,15.21,15.24.5.99,0,6.07-.62,6.77-3.24,0-8.35-.42-19.45-.42-9.48,0-15.34.42-20.07.42-.37-1.13-.62-5.93-.12-6.77,2.87-.56,5.36-1.13,6.48-1.98,1.12-.99,1.25-2.12,1.12-2.68-.37-3.39-2.99-11.71-4.49-15.38-.25-.42-.87-.99-1.5-.99-2.49-.14-7.36,0-10.85,0-4.99,0-7.36,0-9.23.14-.5,0-1.25.71-1.5,1.41-2.12,6.92-3.49,11.43-3.49,13.41,0,2.26.62,3.95,3.49,4.66,2.24.56,4.24.99,6.48,1.41.37.85.12,5.79-.37,6.77-2.99,0-8.35-.42-16.96-.42-4.74,0-11.35.42-15.83.42-.5-1.13-.62-5.5,0-6.77,9.23-1.69,10.97-3.39,14.34-12.14Zm42.39-88.91c.37-.56,4.11-2.82,4.49-2.82.5,0,1.75.56,1.62,1.27-2.25,8.47-10.1,18.2-20.95,18.2-9.6,0-15.46-4.94-15.46-11.57,0-1.98,2.49-6.49,4.36-7.76.37-.28,1.87-.14,2.12.42,1.37,5.22,4.74,8.61,12.47,8.61,4.61,0,7.61-1.41,11.35-6.35Zm-18.83,43.75c-2.24,7.2-5.24,17.64-7.36,24.56-.13.42-.13,1.13.37,1.27,1.5.14,3.86.14,7.48.14,4.12,0,6.61-.14,7.48-.28.25,0,.37-.56.37-.71-.62-2.12-5.11-17.08-7.85-24.98-.12,0-.37-.14-.5,0Z"></path><path class="cls-26" d="m697.4,146.61c4.24,0,9.1.42,18.83.42,4.11,0,8.85-.14,11.35-.28,1,2.54,2.37,4.8,4.99,8.47,10.47,14.68,26.93,38.24,34.66,47.98.25,0,.5-.14.75-.14-.12-18.06-.12-29.07-.75-39.94-.25-4.66-1.5-7.2-5.74-8.18-2.87-.71-5.24-1.13-8.1-1.55-.62-.56-.37-6.49,0-6.77,2.74,0,8.35.42,17.83.42s13.71-.42,16.71-.42c.5.56.5,6.21,0,6.77-1.5.28-2.87.56-4.99,1.27-3.37,1.13-5.24,1.83-5.86,8.89-.75,11.15-1.12,31.47-1,50.1,0,6.49.13,14.54.25,20.04-1.99-.42-11.97-.14-13.84.14-9.48-13.83-32.17-47.84-43.26-63.36-.5-.56-.75,0-.75.14-.13,15.52.12,38.24.37,44.31.25,6.35,2.37,8.61,5.74,9.6,2.12.56,4.36.99,7.85,1.69.62.71.5,5.5-.25,6.77-5.74,0-11.6-.42-17.33-.42-5.24,0-12.47.42-17.83.42-.62-.85-.37-6.21,0-6.77,2.99-.56,4.99-.99,7.85-2.12,2.87-1.27,3.99-4.37,4.24-8.19.75-7.76,1.12-36.27,1.12-51.23,0-3.1-1-7.34-4.24-8.61-2.24-.99-4.86-1.98-8.6-2.4-.5-.71-.37-6.49,0-7.06Z"></path><path class="cls-29" d="m871.94,229.73c-4.61,1.55-17.83,5.36-29.55,5.36-28.93,0-46.26-15.24-46.26-45.58,0-18.35,8.6-32.88,22.94-39.66,6.73-3.25,14.34-5.36,25.81-5.36,12.22,0,20.82,2.96,27.05,3.25-1.25,6.49-2.24,19.19-2.12,27.1-1,1.13-5.98,1.55-6.86.71-1.25-9.74-2.87-14.96-6.23-17.92-4.24-3.81-10.35-5.5-16.08-5.5-12.22,0-22.44,7.9-22.44,35,0,22.16,10.1,40.08,26.56,40.08.62,0,3.62-.42,5.11-2.26.5-.71,1-3.39,1-4.09.37-3.53.37-7.62.25-11.43-.12-3.53-.37-6.77-3.99-8.18-2.37-.85-5.11-.85-9.6-1.83-.62-1.41-.37-6.21.12-7.06,3.37,0,12.72.42,22.82.42,9.1,0,14.21-.28,17.21-.42.5.85.5,6.21,0,7.06-1.5.28-3.49.71-4.74,1.13-1.99.71-2.87,2.12-2.87,5.5-.12,2.54-.12,15.1,0,15.81.25.99.87,1.83,2.99,3.81,0,.99-.62,3.39-1.12,4.09Z"></path><path class="cls-28" d="m911.34,146.61c6.36,0,10.47.42,20.57.42s14.09-.28,19.58-.42c.75.85.5,5.79,0,6.77-3.49.56-5.36.99-6.61,1.41-2.87.99-3.37,2.12-3.49,5.64-.13,2.26-.25,8.47-.25,23.57s.12,30.62.37,34.29c.12,2.68,1.87,3.95,2.49,4.37,2.87.99,9.85.85,16.46.85,2.37,0,4.99-1.55,7.11-5.64,2.37-4.66,5.61-12,7.61-16.93.87-.42,5.98,1.55,6.48,2.82-.25,3.25-4.99,20.89-8.35,27.52-.13.99-1.62,1.98-5.98,1.98-10.85,0-26.68-.71-37.03-.71-12.22,0-16.96.42-19.95.42-.62-1.27-.62-5.93,0-6.77,4.11-.56,5.11-.71,7.98-1.41,2.49-.99,3.37-2.4,3.62-5.36.25-3.25.37-20.74.37-29.21,0-16.79.12-24.27-.25-29.78-.12-2.96-1.12-4.94-3.62-5.64-1.5-.56-5.11-.99-7.61-1.41-.62-1.27-.25-6.21.5-6.77Z"></path><path class="cls-31" d="m999.98,222.26c-7.98-9.17-10.6-21.59-10.6-32.46,0-11.71,3.37-26.25,15.09-35.7,7.11-5.64,16.71-9.6,28.3-9.6,26.18,0,39.9,20.46,39.9,43.89,0,10.58-2.49,21.03-7.73,28.79-8.73,12.42-21.32,17.92-33.79,17.92-15.21,0-24.31-5.08-31.17-12.84Zm43.64.56c5.73-5.93,7.48-17.22,7.48-29.35,0-14.82-3.37-28.93-10.85-36.13-3.49-3.25-6.61-4.8-11.35-4.8-3.12,0-6.48.85-8.85,2.82-6.98,5.36-9.1,17.22-9.1,30.2,0,12,3.12,27.8,11.59,35.99,3.49,3.1,6.98,5.08,12.09,5.08,2.99,0,6.36-1.13,8.98-3.81Z"></path><path class="cls-32" d="m1083.13,146.61c4.24,0,9.1.42,18.83.42,4.11,0,8.85-.14,11.35-.28,1,2.54,2.37,4.8,4.99,8.47,10.47,14.68,26.93,38.24,34.66,47.98.25,0,.5-.14.75-.14-.12-18.06-.12-29.07-.75-39.94-.25-4.66-1.5-7.2-5.74-8.18-2.87-.71-5.24-1.13-8.1-1.55-.62-.56-.37-6.49,0-6.77,2.74,0,8.35.42,17.83.42s13.71-.42,16.71-.42c.5.56.5,6.21,0,6.77-1.5.28-2.87.56-4.99,1.27-3.37,1.13-5.24,1.83-5.86,8.89-.75,11.15-1.12,31.47-1,50.1,0,6.49.13,14.54.25,20.04-1.99-.42-11.97-.14-13.84.14-9.48-13.83-32.17-47.84-43.26-63.36-.5-.56-.75,0-.75.14-.13,15.52.12,38.24.37,44.31.25,6.35,2.37,8.61,5.74,9.6,2.12.56,4.36.99,7.85,1.69.62.71.5,5.5-.25,6.77-5.74,0-11.6-.42-17.33-.42-5.24,0-12.47.42-17.83.42-.62-.85-.37-6.21,0-6.77,2.99-.56,4.99-.99,7.85-2.12,2.87-1.27,3.99-4.37,4.24-8.19.75-7.76,1.12-36.27,1.12-51.23,0-3.1-1-7.34-4.24-8.61-2.24-.99-4.86-1.98-8.6-2.4-.5-.71-.37-6.49,0-7.06Z"></path><path class="cls-25" d="m1257.68,229.73c-4.61,1.55-17.83,5.36-29.55,5.36-28.93,0-46.26-15.24-46.26-45.58,0-18.35,8.6-32.88,22.94-39.66,6.73-3.25,14.34-5.36,25.81-5.36,12.22,0,20.82,2.96,27.05,3.25-1.25,6.49-2.24,19.19-2.12,27.1-1,1.13-5.98,1.55-6.86.71-1.25-9.74-2.87-14.96-6.23-17.92-4.24-3.81-10.35-5.5-16.08-5.5-12.22,0-22.44,7.9-22.44,35,0,22.16,10.1,40.08,26.56,40.08.62,0,3.62-.42,5.11-2.26.5-.71,1-3.39,1-4.09.37-3.53.37-7.62.25-11.43-.12-3.53-.37-6.77-3.99-8.18-2.37-.85-5.11-.85-9.6-1.83-.62-1.41-.37-6.21.12-7.06,3.37,0,12.72.42,22.82.42,9.1,0,14.21-.28,17.21-.42.5.85.5,6.21,0,7.06-1.5.28-3.49.71-4.74,1.13-1.99.71-2.87,2.12-2.87,5.5-.12,2.54-.12,15.1,0,15.81.25.99.87,1.83,2.99,3.81,0,.99-.62,3.39-1.12,4.09Z"></path><path class="cls-1" d="m1356.91,155.5c-3.99-2.54-8.6-3.53-13.71-3.53-13.09,0-21.57,11.43-21.57,35.7,0,15.81,6.73,37.68,27.43,37.68,3.12,0,6.73-.42,10.47-3.81,3.12-2.82,7.23-8.75,10.47-14.54,1.5.42,4.11,2.4,5.11,4.23-1.87,6.21-7.48,17.78-11.22,20.18-3.99,1.55-9.23,3.67-18.45,3.67-28.3,0-45.63-15.38-45.63-46.15,0-16.23,7.11-31.19,21.07-38.67,6.86-3.67,14.84-5.79,25.06-5.79,11.97,0,21.57,2.4,26.31,2.54-.62,4.94-1.62,16.93-1.62,24.56-.62,1.13-5.98,1.69-6.23.71-1.75-9.03-2.49-13.55-7.48-16.79Z"></path><path class="cls-7" d="m1392.94,214.07c7.36-19.33,15.58-44.31,18.83-54.47,1.25-3.39,2.99-9.74,3.37-12.84,2.24.28,4.61.28,7.11.28,2.62,0,4.99,0,7.11-.28.75,2.82,1.75,7.06,2.62,9.6,4.74,14.11,13.59,41.77,18.33,54.61,4.49,12.28,4.86,13.55,15.21,15.24.5.99,0,6.07-.62,6.77-3.24,0-8.35-.42-19.45-.42-9.48,0-15.34.42-20.07.42-.37-1.13-.62-5.93-.12-6.77,2.87-.56,5.36-1.13,6.48-1.98,1.12-.99,1.25-2.12,1.12-2.68-.37-3.39-2.99-11.71-4.49-15.38-.25-.42-.87-.99-1.5-.99-2.49-.14-7.36,0-10.85,0-4.99,0-7.36,0-9.23.14-.5,0-1.25.71-1.5,1.41-2.12,6.92-3.49,11.43-3.49,13.41,0,2.26.62,3.95,3.49,4.66,2.24.56,4.24.99,6.48,1.41.37.85.12,5.79-.37,6.77-2.99,0-8.35-.42-16.96-.42-4.74,0-11.35.42-15.83.42-.5-1.13-.62-5.5,0-6.77,9.23-1.69,10.97-3.39,14.34-12.14Zm23.56-45.16c-2.24,7.2-5.24,17.64-7.36,24.56-.13.42-.13,1.13.37,1.27,1.5.14,3.86.14,7.48.14,4.12,0,6.61-.14,7.48-.28.25,0,.37-.56.37-.71-.62-2.12-5.11-17.08-7.85-24.98-.12,0-.37-.14-.5,0Z"></path><path class="cls-6" d="m1468.74,146.61c3.12,0,13.71.42,18.7.42,12.84,0,20.32-.42,24.56-.42,15.96,0,24.94,10.16,24.94,22.58,0,11.15-6.23,17.36-14.59,21.45-.12,0-.25.85-.12,1.13,2.62,5.79,13.59,21.73,19.08,27.94,4.11,4.66,5.36,5.22,12.22,6.35.25.28-.62,6.77-1.37,7.06-6.98.56-21.2-.42-26.18-3.25-3.49-2.12-5.86-4.94-6.61-6.35-5.24-7.34-9.72-16.09-13.84-23.43-1-1.69-1.87-1.98-3.62-2.12-1.25-.14-3.24-.14-3.62-.14-.25,0-.62.71-.62.99,0,8.61.12,15.1.25,19.62.13,3.1.87,5.22,3.24,6.07,2.87.99,4.11,1.13,7.48,1.69.75.14.5,6.77-.37,6.77-2.12,0-9.1-.42-19.45-.42s-16.58.42-20.2.42c-.62-.56-1.12-6.07-.12-6.77,1.87-.28,4.86-.85,6.48-1.27,2.74-.71,3.62-2.68,3.74-6.49.25-4.52.37-20.46.37-29.21,0-13.83,0-23.71-.25-28.79-.25-3.1-1.25-4.8-3.49-5.36-1.5-.56-4.36-1.13-7.11-1.69-.87-1.27-.37-6.21.5-6.77Zm30.05,8.61c-.37.42-.87,1.55-.87,2.12-.25,4.37-.25,20.04-.25,30.34,0,.56.25,1.41.87,1.41,5.11,0,11.22-.42,13.21-1.69,3.49-1.98,6.23-5.64,6.23-14.25,0-11.71-6.23-18.63-15.21-18.63-1.25,0-3.49.28-3.99.71Z"></path><path class="cls-3" d="m1575.58,223.24c3.24,2.82,8.23,4.09,11.22,4.09,5.24,0,10.35-3.11,10.35-9.74,0-5.64-1.62-9.46-14.84-18.06-8.48-5.5-20.07-12-20.07-28.79s12.59-26.25,27.43-26.25c10.35,0,15.34,1.83,22.69,2.68-1,5.36-1.75,13.12-2.12,22.01-.87.85-5.36.85-6.11.14-1.37-8.47-3.37-12.28-5.86-14.68-2.37-2.26-5.24-3.25-9.23-3.25-6.11,0-10.1,5.08-10.1,11.15s2.87,9.17,8.1,12.7l14.59,9.31c9.35,6.21,13.47,12.14,13.47,22.86,0,14.68-10.72,27.66-31.05,27.66-9.35,0-16.83-2.82-20.7-4.94-1.5-2.12-4.86-18.77-4.86-24.13.62-1.13,5.11-2.68,6.11-2.26,2.99,9.03,6.48,15.52,10.97,19.47Z"></path></g><g><path class="cls-4" d="m606.05,274.77h31.65l.65,12.2h-1.89c-.25-2.11-.58-3.82-.97-5.13-.4-1.3-.96-2.31-1.69-3.02-.73-.71-1.67-1.18-2.82-1.43-1.15-.24-2.6-.37-4.35-.37h-2.19v36.61h5.94v2.27h-17.15v-2.27h5.94v-36.61h-2.05c-1.17,0-2.21.05-3.11.14-.9.09-1.69.27-2.36.54-.68.26-1.26.63-1.74,1.1-.49.47-.9,1.08-1.24,1.81-.34.74-.63,1.62-.88,2.66s-.46,2.27-.63,3.68h-1.89l.78-12.2Z"></path><path class="cls-9" d="m685.51,274.77c2.86,0,5.28.23,7.24.68,1.96.45,3.55,1.1,4.75,1.93,1.21.83,2.07,1.84,2.59,3.02.52,1.18.78,2.49.78,3.92,0,1.25-.18,2.43-.55,3.54-.37,1.11-.92,2.12-1.66,3.03-.74.91-1.66,1.68-2.77,2.34-1.11.65-2.41,1.15-3.9,1.49v.11c1.24.3,2.26.75,3.07,1.33.8.59,1.45,1.3,1.94,2.15.5.85.88,1.82,1.16,2.9.28,1.09.53,2.28.74,3.58.22,1.34.41,2.56.58,3.67.17,1.1.4,2.06.69,2.86.29.8.68,1.43,1.17,1.87.49.44,1.18.67,2.07.67.16,0,.39,0,.69-.03.3-.02.62-.06.99-.11v2.18c-.31.08-.64.14-1,.2s-.72.1-1.09.13c-.37.03-.73.05-1.08.06-.35,0-.66.01-.93.01-1.57,0-2.8-.17-3.69-.52-.89-.35-1.58-.89-2.05-1.63-.48-.74-.81-1.66-1.01-2.77-.2-1.11-.39-2.44-.57-3.96-.27-2.23-.54-4.1-.81-5.61-.27-1.51-.65-2.72-1.13-3.64-.49-.92-1.14-1.57-1.97-1.95-.83-.39-1.95-.58-3.38-.58h-5.08v18.04h5.67v2.27h-16.34v-2.27h5.4v-36.61h-5.4v-2.26h14.88Zm-4.21,18.57h3.59c1.94,0,3.57-.17,4.88-.51,1.31-.34,2.36-.87,3.16-1.6.8-.73,1.37-1.65,1.7-2.77.33-1.12.5-2.48.5-4.06,0-1.32-.14-2.45-.4-3.38-.27-.93-.77-1.69-1.5-2.28-.73-.58-1.74-1.01-3.02-1.29-1.29-.27-2.96-.41-5.01-.41h-3.89v16.31Z"></path><path class="cls-2" d="m746.68,302.61c0,1.62.07,3.15.2,4.59.13,1.44.5,2.69,1.11,3.77s1.52,1.93,2.76,2.56c1.23.63,2.95.95,5.14.95s4.03-.33,5.4-.98c1.37-.65,2.43-1.55,3.17-2.69s1.25-2.49,1.5-4.05c.25-1.56.38-3.24.38-5.05v-24.66h-5.4v-2.26h13.21v2.26h-5.37v24.35c0,2.53-.2,4.76-.59,6.68-.4,1.93-1.11,3.54-2.13,4.84-1.03,1.3-2.41,2.29-4.16,2.96-1.75.67-3.97,1.01-6.67,1.01-2.41,0-4.49-.27-6.24-.82-1.75-.55-3.18-1.4-4.29-2.55-1.12-1.15-1.94-2.62-2.47-4.4s-.8-3.9-.8-6.36v-25.71h-5.4v-2.26h16.07v2.26h-5.4v25.57Z"></path><path class="cls-10" d="m806.86,303.6h1.89c.2,2.15.59,3.95,1.19,5.38s1.33,2.58,2.2,3.43c.87.85,1.87,1.45,3,1.8,1.13.35,2.32.52,3.58.52,1.51,0,2.8-.2,3.88-.59,1.07-.4,1.95-.95,2.65-1.66s1.2-1.56,1.51-2.55c.31-.99.47-2.08.47-3.27,0-1.47-.23-2.68-.7-3.64-.47-.95-1.12-1.76-1.96-2.44-.84-.67-1.84-1.25-3.01-1.74-1.17-.49-2.46-1-3.86-1.53-1.4-.53-2.74-1.09-4.01-1.67-1.27-.58-2.39-1.31-3.36-2.18-.97-.87-1.74-1.93-2.31-3.19-.57-1.26-.85-2.82-.85-4.69,0-1.76.27-3.36.81-4.81.54-1.45,1.34-2.69,2.4-3.72,1.06-1.03,2.38-1.83,3.96-2.39,1.58-.57,3.41-.85,5.5-.85.83,0,1.68.04,2.57.13s1.76.21,2.63.38c.87.17,1.73.37,2.58.61.85.24,1.65.5,2.4.78l.32,10.28h-1.89c-.16-2.04-.52-3.7-1.08-4.98-.56-1.28-1.24-2.29-2.04-3.02-.8-.73-1.69-1.23-2.67-1.5-.98-.27-1.99-.41-3.01-.41-1.37,0-2.56.17-3.57.52-1.01.35-1.85.85-2.51,1.5-.67.65-1.17,1.44-1.5,2.38-.33.93-.5,1.99-.5,3.16,0,1.4.23,2.56.7,3.48.47.93,1.13,1.72,1.98,2.39.85.67,1.88,1.27,3.08,1.78,1.2.52,2.52,1.06,3.96,1.63,1.31.53,2.61,1.09,3.88,1.68,1.27.59,2.4,1.34,3.4,2.24,1,.9,1.8,2,2.42,3.31.61,1.31.92,2.94.92,4.88s-.31,3.57-.93,5.04c-.62,1.47-1.51,2.71-2.67,3.71-1.16,1-2.58,1.77-4.25,2.29s-3.57.79-5.67.79c-.92,0-1.87-.05-2.85-.14-.98-.09-1.95-.24-2.92-.42-.96-.19-1.9-.41-2.82-.65-.92-.25-1.77-.53-2.57-.85l-.35-11.21Z"></path><path class="cls-5" d="m866.17,274.77h31.65l.65,12.2h-1.89c-.25-2.11-.58-3.82-.97-5.13-.4-1.3-.96-2.31-1.69-3.02-.73-.71-1.67-1.18-2.82-1.43-1.15-.24-2.6-.37-4.35-.37h-2.19v36.61h5.94v2.27h-17.15v-2.27h5.94v-36.61h-2.05c-1.17,0-2.21.05-3.11.14-.9.09-1.69.27-2.36.54-.68.26-1.26.63-1.74,1.1-.49.47-.9,1.08-1.24,1.81-.34.74-.63,1.62-.88,2.66s-.46,2.27-.63,3.68h-1.89l.78-12.2Z"></path><path class="cls-8" d="m941.42,293.43h3.54c1.21,0,2.22-.05,3.03-.14.81-.09,1.46-.36,1.96-.81.49-.44.87-1.13,1.12-2.07.25-.93.43-2.25.54-3.95h1.92v16.76h-1.92c-.09-1.72-.24-3.07-.46-4.06-.22-.99-.57-1.74-1.05-2.25-.49-.51-1.14-.83-1.96-.96-.82-.13-1.88-.2-3.17-.2h-3.54v17.9h7.16c1.4,0,2.64-.06,3.7-.17,1.06-.11,1.99-.32,2.78-.62.79-.3,1.47-.73,2.04-1.27.57-.55,1.06-1.26,1.47-2.12.41-.87.77-1.93,1.05-3.17.29-1.25.56-2.72.81-4.42h1.89l-.54,14.04h-31.03v-2.27h5.4v-36.61h-5.4v-2.26h30.36l.54,11.35h-1.89c-.27-1.89-.6-3.42-1-4.6-.4-1.18-.95-2.1-1.66-2.77-.71-.67-1.64-1.12-2.78-1.36-1.14-.24-2.59-.35-4.33-.35h-8.56v16.4Z"></path><path class="cls-20" d="m996.35,315.92v-2.27h5.4v-36.61h-5.4v-2.26h16.31c3.64,0,6.68.47,9.14,1.42,2.46.94,4.43,2.29,5.93,4.03,1.49,1.75,2.56,3.86,3.2,6.33.64,2.47.96,5.24.96,8.3,0,1.77-.11,3.53-.34,5.25-.23,1.73-.62,3.37-1.17,4.93-.56,1.56-1.31,3-2.26,4.33-.94,1.33-2.15,2.48-3.61,3.45-1.46.97-3.2,1.73-5.21,2.28-2.02.55-4.37.82-7.05.82h-15.91Zm10.67-2.27h4.89c2.77,0,5.07-.28,6.9-.85,1.83-.57,3.27-1.56,4.33-2.97s1.81-3.33,2.24-5.75.65-5.47.65-9.17c0-2.02-.07-3.87-.2-5.55-.14-1.68-.38-3.18-.74-4.5-.36-1.32-.86-2.47-1.5-3.45-.64-.98-1.46-1.79-2.46-2.44s-2.21-1.12-3.63-1.44c-1.42-.32-3.1-.48-5.02-.48h-5.46v36.61Z"></path><path class="cls-18" d="m1081.48,303.6h1.89c.2,2.15.59,3.95,1.19,5.38s1.33,2.58,2.2,3.43c.87.85,1.87,1.45,3,1.8,1.13.35,2.32.52,3.58.52,1.51,0,2.8-.2,3.88-.59,1.07-.4,1.95-.95,2.65-1.66s1.2-1.56,1.51-2.55c.31-.99.47-2.08.47-3.27,0-1.47-.23-2.68-.7-3.64-.47-.95-1.12-1.76-1.96-2.44-.84-.67-1.84-1.25-3.01-1.74-1.17-.49-2.46-1-3.86-1.53-1.4-.53-2.74-1.09-4.01-1.67-1.27-.58-2.39-1.31-3.36-2.18-.97-.87-1.74-1.93-2.31-3.19-.57-1.26-.85-2.82-.85-4.69,0-1.76.27-3.36.81-4.81.54-1.45,1.34-2.69,2.4-3.72,1.06-1.03,2.38-1.83,3.96-2.39,1.58-.57,3.41-.85,5.5-.85.83,0,1.68.04,2.57.13s1.76.21,2.63.38c.87.17,1.73.37,2.58.61.85.24,1.65.5,2.4.78l.32,10.28h-1.89c-.16-2.04-.52-3.7-1.08-4.98-.56-1.28-1.24-2.29-2.04-3.02-.8-.73-1.69-1.23-2.67-1.5-.98-.27-1.99-.41-3.01-.41-1.37,0-2.56.17-3.57.52-1.01.35-1.85.85-2.51,1.5-.67.65-1.17,1.44-1.5,2.38-.33.93-.5,1.99-.5,3.16,0,1.4.23,2.56.7,3.48.47.93,1.13,1.72,1.98,2.39.85.67,1.88,1.27,3.08,1.78,1.2.52,2.52,1.06,3.96,1.63,1.31.53,2.61,1.09,3.88,1.68,1.27.59,2.4,1.34,3.4,2.24,1,.9,1.8,2,2.42,3.31.61,1.31.92,2.94.92,4.88s-.31,3.57-.93,5.04-1.51,2.71-2.67,3.71c-1.16,1-2.58,1.77-4.25,2.29s-3.57.79-5.67.79c-.92,0-1.87-.05-2.85-.14-.98-.09-1.95-.24-2.92-.42-.96-.19-1.9-.41-2.82-.65-.92-.25-1.77-.53-2.57-.85l-.35-11.21Z"></path><path class="cls-15" d="m1150.54,293.43h3.54c1.21,0,2.22-.05,3.03-.14.81-.09,1.46-.36,1.96-.81.49-.44.87-1.13,1.12-2.07.25-.93.43-2.25.54-3.95h1.92v16.76h-1.92c-.09-1.72-.24-3.07-.46-4.06-.22-.99-.57-1.74-1.05-2.25-.49-.51-1.14-.83-1.96-.96-.82-.13-1.88-.2-3.17-.2h-3.54v17.9h7.16c1.4,0,2.64-.06,3.7-.17,1.06-.11,1.99-.32,2.78-.62.79-.3,1.47-.73,2.04-1.27.57-.55,1.06-1.26,1.47-2.12.41-.87.77-1.93,1.05-3.17.29-1.25.56-2.72.81-4.42h1.89l-.54,14.04h-31.03v-2.27h5.4v-36.61h-5.4v-2.26h30.36l.54,11.35h-1.89c-.27-1.89-.6-3.42-1-4.6-.4-1.18-.95-2.1-1.66-2.77-.71-.67-1.64-1.12-2.78-1.36-1.14-.24-2.59-.35-4.33-.35h-8.56v16.4Z"></path><path class="cls-16" d="m1222.49,313.65c1.4,0,2.64-.06,3.7-.17,1.06-.11,1.99-.33,2.8-.64.8-.31,1.49-.75,2.07-1.3s1.07-1.28,1.49-2.17c.41-.89.77-1.97,1.07-3.24.3-1.27.56-2.79.8-4.54h1.89l-.59,14.33h-30.22v-2.27h5.4v-36.61h-5.4v-2.26h16.07v2.26h-5.4v36.61h6.35Z"></path><path class="cls-14" d="m1285.58,313.65c1.4,0,2.64-.06,3.7-.17,1.06-.11,1.99-.33,2.8-.64.8-.31,1.49-.75,2.07-1.3s1.07-1.28,1.49-2.17c.41-.89.77-1.97,1.07-3.24.3-1.27.56-2.79.8-4.54h1.89l-.59,14.33h-30.22v-2.27h5.4v-36.61h-5.4v-2.26h16.07v2.26h-5.4v36.61h6.35Z"></path><path class="cls-12" d="m1342.33,293.43h3.54c1.21,0,2.22-.05,3.03-.14.81-.09,1.46-.36,1.96-.81.49-.44.87-1.13,1.12-2.07.25-.93.43-2.25.54-3.95h1.92v16.76h-1.92c-.09-1.72-.24-3.07-.46-4.06-.22-.99-.57-1.74-1.05-2.25-.49-.51-1.14-.83-1.96-.96-.82-.13-1.88-.2-3.17-.2h-3.54v17.9h7.16c1.4,0,2.64-.06,3.7-.17,1.06-.11,1.99-.32,2.78-.62.79-.3,1.47-.73,2.04-1.27.57-.55,1.06-1.26,1.47-2.12.41-.87.77-1.93,1.05-3.17.29-1.25.56-2.72.81-4.42h1.89l-.54,14.04h-31.03v-2.27h5.4v-36.61h-5.4v-2.26h30.36l.54,11.35h-1.89c-.27-1.89-.6-3.42-1-4.6-.4-1.18-.95-2.1-1.66-2.77-.71-.67-1.64-1.12-2.78-1.36-1.14-.24-2.59-.35-4.33-.35h-8.56v16.4Z"></path><path class="cls-11" d="m1412.15,274.77c2.86,0,5.28.23,7.24.68,1.96.45,3.55,1.1,4.75,1.93,1.21.83,2.07,1.84,2.59,3.02.52,1.18.78,2.49.78,3.92,0,1.25-.18,2.43-.55,3.54-.37,1.11-.92,2.12-1.66,3.03-.74.91-1.66,1.68-2.77,2.34-1.11.65-2.41,1.15-3.9,1.49v.11c1.24.3,2.26.75,3.07,1.33.8.59,1.45,1.3,1.94,2.15.5.85.88,1.82,1.16,2.9.28,1.09.53,2.28.74,3.58.22,1.34.41,2.56.58,3.67.17,1.1.4,2.06.69,2.86.29.8.68,1.43,1.17,1.87.49.44,1.18.67,2.07.67.16,0,.39,0,.69-.03.3-.02.62-.06.99-.11v2.18c-.31.08-.64.14-1,.2s-.72.1-1.09.13c-.37.03-.73.05-1.08.06-.35,0-.66.01-.93.01-1.57,0-2.8-.17-3.69-.52-.89-.35-1.58-.89-2.05-1.63-.48-.74-.81-1.66-1.01-2.77-.2-1.11-.39-2.44-.57-3.96-.27-2.23-.54-4.1-.81-5.61-.27-1.51-.65-2.72-1.13-3.64-.49-.92-1.14-1.57-1.97-1.95-.83-.39-1.95-.58-3.38-.58h-5.08v18.04h5.67v2.27h-16.34v-2.27h5.4v-36.61h-5.4v-2.26h14.88Zm-4.21,18.57h3.59c1.94,0,3.57-.17,4.88-.51,1.31-.34,2.36-.87,3.16-1.6.8-.73,1.37-1.65,1.7-2.77.33-1.12.5-2.48.5-4.06,0-1.32-.14-2.45-.4-3.38-.27-.93-.77-1.69-1.5-2.28-.73-.58-1.74-1.01-3.02-1.29-1.29-.27-2.96-.41-5.01-.41h-3.89v16.31Z"></path></g></g><path class="cls-19" d="m276.9,108.13l-38.56,41.02h-61.76v7.37h-17.4v145.14h-60.98v-145.14H6.03c4.37-17.14,11.03-33.38,19.63-48.38h251.24Z"></path><path class="cls-13" d="m390.74,254.33c-4.43,16.76-11.05,32.64-19.52,47.33h-190.07v-147.47h60.39v100.14h149.19Z"></path><path class="cls-17" d="m29.67,98.14h42.9S125.53,13.69,237.37,18.26c0,0,89.01,2.28,141.51,84.45,0,0-45.65-102.71-184.87-102.71,0,0-104.99,0-164.33,98.14Z"></path><path class="cls-22" d="m104.99,82.65s84.45-95.86,214.54-22.82c0,0,95.86,54.78,75.32,180.31h-39.23c1.22,0,3.29-16.2,3.44-17.29,1.88-14.37,1.77-29.04-.38-43.38-5.74-38.27-27.86-72.01-57.67-96.12-18.64-15.08-40.78-26.26-64.12-31.82-37.92-9.04-76.87-1.39-110.61,17.48-7.36,4.12-14.46,8.7-21.3,13.64Z"></path><path class="cls-23" d="m368.06,308.12h-42.9s-52.96,84.45-164.8,79.88c0,0-89.01-2.28-141.51-84.45,0,0,45.65,102.71,184.87,102.71,0,0,104.99,0,164.33-98.14Z"></path><path class="cls-21" d="m292.75,326.38s-84.45,95.86-214.54,22.82c0,0-95.86-54.78-75.32-180.31h39.23c-1.22,0-3.29,16.2-3.44,17.29-1.88,14.37-1.77,29.04.38,43.38,5.74,38.27,27.86,72.01,57.67,96.12,18.64,15.08,40.78,26.26,64.12,31.82,37.92,9.04,76.87,1.39,110.61-17.48,7.36-4.12,14.46-8.7,21.3-13.64Z"></path></g></svg> 